<svg width="17" height="16" viewBox="0 0 17 16" fill="none" xmlns="http://www.w3.org/2000/svg">
<rect x="0.878418" width="16" height="16" rx="8" fill="#16C67A"/>
<path d="M1.87842 8C1.87842 4.13401 5.01242 1 8.87842 1C12.7444 1 15.8784 4.13401 15.8784 8C15.8784 11.866 12.7444 15 8.87842 15C5.01242 15 1.87842 11.866 1.87842 8Z" fill="#16C67A"/>
<path d="M7.49606 11.3133C7.34302 11.3126 7.19637 11.2519 7.08772 11.1441L4.38105 8.43744C4.27241 8.32815 4.21143 8.1803 4.21143 8.02619C4.21143 7.87208 4.27241 7.72424 4.38105 7.61494C4.43528 7.56027 4.4998 7.51687 4.57089 7.48726C4.64197 7.45764 4.71821 7.44239 4.79522 7.44239C4.87223 7.44239 4.94847 7.45764 5.01956 7.48726C5.09064 7.51687 5.15516 7.56027 5.20939 7.61494L7.49606 9.90744L12.5477 4.85578C12.602 4.8011 12.6665 4.7577 12.7376 4.72809C12.8086 4.69847 12.8849 4.68323 12.9619 4.68323C13.0389 4.68323 13.1151 4.69847 13.1862 4.72809C13.2573 4.7577 13.3218 4.8011 13.3761 4.85578C13.4847 4.96507 13.5457 5.11292 13.5457 5.26703C13.5457 5.42113 13.4847 5.56898 13.3761 5.67828L7.91022 11.1441C7.85572 11.1982 7.79107 11.2409 7.72 11.27C7.64893 11.299 7.57283 11.3137 7.49606 11.3133Z" fill="white"/>
</svg>
