<svg width="64" height="64" viewBox="0 0 64 64" fill="none" xmlns="http://www.w3.org/2000/svg">
<path d="M61.089 13.1555C60.8446 12.9111 60.6001 12.6666 60.1113 12.6666H13.6667L12.4445 6.31111C12.4445 5.82219 11.7112 5.33337 11.2222 5.33337H3.88889C3.15568 5.33326 2.66675 5.82219 2.66675 6.55552C2.66675 7.28885 3.15568 7.77778 3.88901 7.77778H10.2446L16.1113 37.6C16.8446 41.5111 20.5113 44.4445 24.4223 44.4445H52.5334C53.2667 44.4445 53.7557 43.9555 53.7557 43.2222C53.7557 42.4889 53.2667 41.9999 52.5334 41.9999H24.6667C22.7112 41.9999 20.7557 41.0222 19.7778 39.311L55.4667 34.4222C55.9557 34.4222 56.4445 33.9333 56.4445 33.4444L61.3334 13.8889C61.3334 13.8889 61.3334 13.3999 61.089 13.1555ZM54.2445 32.2222L18.5556 36.8666L14.1556 14.8666H58.4001L54.2445 32.2222Z" fill="#BABAC0"/>
<path d="M23.4446 46.889C20.0224 46.889 17.3335 49.578 17.3335 53.0001C17.3335 56.4224 20.0224 59.1112 23.4446 59.1112C26.8668 59.1112 29.5556 56.4223 29.5556 53.0001C29.5558 49.578 26.8668 46.889 23.4446 46.889ZM23.4446 56.6668C21.489 56.6668 19.7779 54.9556 19.7779 53.0001C19.7779 51.0446 21.489 49.3334 23.4446 49.3334C25.4002 49.3334 27.1112 51.0446 27.1112 53.0001C27.1112 54.9556 25.4002 56.6668 23.4446 56.6668Z" fill="#BABAC0"/>
<path d="M49.3334 48C45.6 48 42.6667 50.9334 42.6667 54.6666C42.6667 58.4 45.6001 61.3332 49.3334 61.3332C53.0667 61.3332 56 58.3999 56 54.6666C56 50.9334 53.0666 48 49.3334 48ZM49.3334 58.6666C47.2 58.6666 45.3334 56.7999 45.3334 54.6666C45.3334 52.5334 47.2 50.6666 49.3334 50.6666C51.4667 50.6666 53.3334 52.5334 53.3334 54.6666C53.3334 56.7999 51.4666 58.6666 49.3334 58.6666Z" fill="#BABAC0"/>
</svg>
